<svg width="60" height="60" viewBox="0 0 60 60" fill="none" xmlns="http://www.w3.org/2000/svg">
<path d="M53.8326 14.9531C53.8708 15.6093 53.8708 16.2657 53.8708 16.9219C53.8708 36.9374 41.4976 60 18.8833 60C11.9163 60 5.4442 57.5156 0 53.2032C0.989886 53.3438 1.94157 53.3906 2.96954 53.3906C8.7182 53.3906 14.0102 51 18.2361 46.922C12.83 46.7812 8.29948 42.422 6.73854 36.4218C7.50002 36.5624 8.2614 36.6562 9.06098 36.6562C10.165 36.6562 11.2691 36.4686 12.297 36.1406C6.66248 34.7342 2.43646 28.6406 2.43646 21.2812V21.0938C4.07346 22.2188 5.97718 22.922 7.9948 23.0156C4.6826 20.2968 2.51262 15.6562 2.51262 10.4061C2.51262 7.5937 3.12166 5.01558 4.18772 2.76556C10.2411 11.953 19.3401 17.9529 29.543 18.6093C29.3528 17.4843 29.2386 16.3125 29.2386 15.1406C29.2386 6.7968 34.7208 0 41.5356 0C45.0762 0 48.274 1.82812 50.5204 4.78124C53.2994 4.12502 55.9644 2.85934 58.325 1.12501C57.411 4.64072 55.4696 7.59384 52.9188 9.4687C55.3934 9.14074 57.792 8.2968 60 7.12506C58.3252 10.1249 56.2312 12.7967 53.8326 14.9531Z" fill="#00B2FF"/>
</svg>
