<svg width="70" height="50" viewBox="0 0 70 50" fill="none" xmlns="http://www.w3.org/2000/svg">
<path d="M68.5372 7.8233C67.7322 4.74388 65.3602 2.31862 62.3485 1.49557C56.8896 0 35 0 35 0C35 0 13.1105 0 7.65146 1.49557C4.63976 2.31876 2.26777 4.74388 1.46272 7.8233C0 13.4049 0 25.0506 0 25.0506C0 25.0506 0 36.696 1.46272 42.2778C2.26777 45.3572 4.63976 47.6814 7.65146 48.5044C13.1105 50 35 50 35 50C35 50 56.8895 50 62.3485 48.5044C65.3602 47.6814 67.7322 45.3572 68.5372 42.2778C70 36.696 70 25.0506 70 25.0506C70 25.0506 70 13.4049 68.5372 7.8233ZM27.8408 35.6238V14.4772L46.1363 25.0508L27.8408 35.6238Z" fill="#FF0000"/>
</svg>
